<svg xmlns="http://www.w3.org/2000/svg" viewBox="0 0 32 32" role="img" aria-label="SuperVideoGenerator">
  <title>SuperVideoGenerator</title>
  <rect width="32" height="32" fill="#080a0f"/>
  <!-- 取景器角（圆角端点） -->
  <g fill="none" stroke="#8e9aaf" stroke-width="1.15" stroke-linecap="round" stroke-linejoin="round">
    <path d="M4.5 10V5.5h4.5"/>
    <path d="M27.5 10V5.5H23"/>
    <path d="M4.5 22v4.5h4.5"/>
    <path d="M27.5 22v4.5H23"/>
  </g>
  <!-- 圆耳 -->
  <ellipse cx="9.5" cy="9.5" rx="3" ry="3.5" fill="#1a2233"/>
  <ellipse cx="22.5" cy="9.5" rx="3" ry="3.5" fill="#1a2233"/>
  <!-- 圆头 -->
  <ellipse cx="16" cy="16.5" rx="9.5" ry="9" fill="#121826" stroke="#2a3347" stroke-width=".55"/>
  <!-- 轻腮红 -->
  <ellipse cx="9" cy="18.5" rx="1.75" ry="1" fill="#e0634a" opacity=".28"/>
  <ellipse cx="23" cy="18.5" rx="1.75" ry="1" fill="#e0634a" opacity=".28"/>
  <!-- 镜头眼（大瞳） -->
  <circle cx="12" cy="15.5" r="4" fill="#0e1420" stroke="#8e9aaf" stroke-width=".7"/>
  <circle cx="20" cy="15.5" r="4" fill="#0e1420" stroke="#8e9aaf" stroke-width=".7"/>
  <circle cx="12" cy="15.5" r="2.25" fill="#e0634a"/>
  <circle cx="20" cy="15.5" r="2.25" fill="#e0634a"/>
  <circle cx="11.1" cy="14.55" r=".55" fill="#f4d4cc"/>
  <circle cx="19.1" cy="14.55" r=".55" fill="#f4d4cc"/>
  <!-- 钝喙 -->
  <ellipse cx="16" cy="19.5" rx="1.4" ry="1" fill="#3d465c"/>
</svg>
