<svg xmlns="http://www.w3.org/2000/svg" viewBox="0 0 128 128" role="img" aria-label="SuperVideoGenerator">
  <title>SuperVideoGenerator</title>
  <rect width="128" height="128" fill="#080a0f"/>
  <!-- ?????????? -->
  <g fill="none" stroke="#8e9aaf" stroke-width="3.5" stroke-linecap="round" stroke-linejoin="round">
    <path d="M18 42V22h20"/>
    <path d="M110 42V22H90"/>
    <path d="M18 86v20h20"/>
    <path d="M110 86v20H90"/>
  </g>
  <!-- ?? -->
  <ellipse cx="38" cy="38" rx="12" ry="14" fill="#1a2233"/>
  <ellipse cx="90" cy="38" rx="12" ry="14" fill="#1a2233"/>
  <!-- ?? -->
  <ellipse cx="64" cy="66" rx="38" ry="36" fill="#121826" stroke="#2a3347" stroke-width="2"/>
  <!-- ??? -->
  <ellipse cx="36" cy="74" rx="7" ry="4" fill="#e0634a" opacity=".28"/>
  <ellipse cx="92" cy="74" rx="7" ry="4" fill="#e0634a" opacity=".28"/>
  <!-- ??????? -->
  <circle cx="48" cy="62" r="16" fill="#0e1420" stroke="#8e9aaf" stroke-width="2.2"/>
  <circle cx="80" cy="62" r="16" fill="#0e1420" stroke="#8e9aaf" stroke-width="2.2"/>
  <circle cx="48" cy="62" r="9" fill="#e0634a"/>
  <circle cx="80" cy="62" r="9" fill="#e0634a"/>
  <circle cx="44.5" cy="58" r="2.4" fill="#f4d4cc"/>
  <circle cx="76.5" cy="58" r="2.4" fill="#f4d4cc"/>
  <!-- ?? -->
  <ellipse cx="64" cy="78" rx="5.5" ry="4" fill="#3d465c"/>
</svg>
